solid OpenSCAD_Model
  facet normal 0 0 -1
    outer loop
      vertex 1.33826 -1.48628 0
      vertex 1.61803 -1.17557 0
      vertex 2.67651 -2.97256 0
    endloop
  endfacet
  facet normal 0 0 -1
    outer loop
      vertex 1 -1.73204 0
      vertex 2.67651 -2.97256 0
      vertex 2 -3.4641 0
    endloop
  endfacet
  facet normal 0 0 -1
    outer loop
      vertex 1.95628 0.415817 0
      vertex 1.82709 0.813461 0
      vertex 3.91258 0.831635 0
    endloop
  endfacet
  facet normal 0 0 -1
    outer loop
      vertex 1.61803 1.17557 0
      vertex 2.67651 2.97256 0
      vertex 3.23605 2.35114 0
    endloop
  endfacet
  facet normal 0 0 -1
    outer loop
      vertex 1.82709 0.813461 0
      vertex 3.65417 1.62694 0
      vertex 3.91258 0.831635 0
    endloop
  endfacet
  facet normal 0 0 -1
    outer loop
      vertex 0.618027 1.9021 0
      vertex 1.23605 3.80421 0
      vertex 1 1.73204 0
    endloop
  endfacet
  facet normal 0 0 -1
    outer loop
      vertex 3.91258 -0.831635 0
      vertex 2 0 0
      vertex 4 0 0
    endloop
  endfacet
  facet normal -0 0 -1
    outer loop
      vertex -0.209045 1.98903 0
      vertex -0.618027 1.9021 0
      vertex -0.418106 3.97807 0
    endloop
  endfacet
  facet normal 0 0 -1
    outer loop
      vertex -0.618027 1.9021 0
      vertex -1.23605 3.80421 0
      vertex -0.418106 3.97807 0
    endloop
  endfacet
  facet normal 0 0 -1
    outer loop
      vertex 0.209045 1.98903 0
      vertex -0.418106 3.97807 0
      vertex 0.418106 3.97807 0
    endloop
  endfacet
  facet normal 0 0 -1
    outer loop
      vertex -1.82709 0.813461 0
      vertex -3.91258 0.831635 0
      vertex -3.65417 1.62694 0
    endloop
  endfacet
  facet normal 0 0 -1
    outer loop
      vertex -2 0 0
      vertex -4 0 0
      vertex -3.91258 0.831635 0
    endloop
  endfacet
  facet normal -0 0 -1
    outer loop
      vertex -0.618027 -1.9021 0
      vertex -1.23605 -3.80421 0
      vertex -1 -1.73204 0
    endloop
  endfacet
  facet normal 0 -0 -1
    outer loop
      vertex -1.95628 -0.415817 0
      vertex -1.82709 -0.813461 0
      vertex -3.91258 -0.831635 0
    endloop
  endfacet
  facet normal -0 0 -1
    outer loop
      vertex -1.33826 -1.48628 0
      vertex -2.67651 -2.97256 0
      vertex -1.61803 -1.17557 0
    endloop
  endfacet
  facet normal 0 0 -1
    outer loop
      vertex -1.61803 -1.17557 0
      vertex -2.67651 -2.97256 0
      vertex -3.23605 -2.35114 0
    endloop
  endfacet
  facet normal 0 -0 -1
    outer loop
      vertex -1.82709 -0.813461 0
      vertex -1.61803 -1.17557 0
      vertex -3.65417 -1.62694 0
    endloop
  endfacet
  facet normal 0 0 -1
    outer loop
      vertex -1 -1.73204 0
      vertex -1.23605 -3.80421 0
      vertex -2 -3.4641 0
    endloop
  endfacet
  facet normal 0 -0 -1
    outer loop
      vertex -0.618027 -1.9021 0
      vertex -0.418106 -3.97807 0
      vertex -1.23605 -3.80421 0
    endloop
  endfacet
  facet normal 0 0 -1
    outer loop
      vertex -0.418106 -3.97807 0
      vertex -0.209045 -1.98903 0
      vertex 0.209045 -1.98903 0
    endloop
  endfacet
  facet normal 0 0 -1
    outer loop
      vertex -0.418106 -3.97807 0
      vertex -0.618027 -1.9021 0
      vertex -0.209045 -1.98903 0
    endloop
  endfacet
  facet normal -0 0 -1
    outer loop
      vertex 1.23605 -3.80421 0
      vertex 0.418106 -3.97807 0
      vertex 0.618027 -1.9021 0
    endloop
  endfacet
  facet normal 0 -0 -1
    outer loop
      vertex 0.209045 -1.98903 0
      vertex 0.418106 -3.97807 0
      vertex -0.418106 -3.97807 0
    endloop
  endfacet
  facet normal -0 0 -1
    outer loop
      vertex 3.91258 -0.831635 0
      vertex 3.65417 -1.62694 0
      vertex 1.82709 -0.813461 0
    endloop
  endfacet
  facet normal -0 0 -1
    outer loop
      vertex -1.95628 0.415817 0
      vertex -2 0 0
      vertex -3.91258 0.831635 0
    endloop
  endfacet
  facet normal 0 0 -1
    outer loop
      vertex -2.67651 -2.97256 0
      vertex -1 -1.73204 0
      vertex -2 -3.4641 0
    endloop
  endfacet
  facet normal -0 0 -1
    outer loop
      vertex -1 -1.73204 0
      vertex -2.67651 -2.97256 0
      vertex -1.33826 -1.48628 0
    endloop
  endfacet
  facet normal 0 0 -1
    outer loop
      vertex -3.65417 -1.62694 0
      vertex -1.61803 -1.17557 0
      vertex -3.23605 -2.35114 0
    endloop
  endfacet
  facet normal 0 0 -1
    outer loop
      vertex -3.91258 -0.831635 0
      vertex -1.82709 -0.813461 0
      vertex -3.65417 -1.62694 0
    endloop
  endfacet
  facet normal 0 -0 -1
    outer loop
      vertex -2 0 0
      vertex -1.95628 -0.415817 0
      vertex -3.91258 -0.831635 0
    endloop
  endfacet
  facet normal 0 0 -1
    outer loop
      vertex -3.91258 -0.831635 0
      vertex -4 0 0
      vertex -2 0 0
    endloop
  endfacet
  facet normal -0 0 -1
    outer loop
      vertex -1.82709 0.813461 0
      vertex -1.95628 0.415817 0
      vertex -3.91258 0.831635 0
    endloop
  endfacet
  facet normal -0 0 -1
    outer loop
      vertex -1.61803 1.17557 0
      vertex -1.82709 0.813461 0
      vertex -3.65417 1.62694 0
    endloop
  endfacet
  facet normal 0 0 -1
    outer loop
      vertex -3.23605 2.35114 0
      vertex -2.67651 2.97256 0
      vertex -1.61803 1.17557 0
    endloop
  endfacet
  facet normal 0 -0 -1
    outer loop
      vertex -3.23605 2.35114 0
      vertex -1.61803 1.17557 0
      vertex -3.65417 1.62694 0
    endloop
  endfacet
  facet normal 0 0 -1
    outer loop
      vertex -2.67651 2.97256 0
      vertex -1 1.73204 0
      vertex -1.33826 1.48628 0
    endloop
  endfacet
  facet normal 0 0 -1
    outer loop
      vertex -2.67651 2.97256 0
      vertex -1.33826 1.48628 0
      vertex -1.61803 1.17557 0
    endloop
  endfacet
  facet normal 0 0 -1
    outer loop
      vertex -2 3.4641 0
      vertex -1.23605 3.80421 0
      vertex -1 1.73204 0
    endloop
  endfacet
  facet normal 0 -0 -1
    outer loop
      vertex -2 3.4641 0
      vertex -1 1.73204 0
      vertex -2.67651 2.97256 0
    endloop
  endfacet
  facet normal 0 0 -1
    outer loop
      vertex -1 1.73204 0
      vertex -1.23605 3.80421 0
      vertex -0.618027 1.9021 0
    endloop
  endfacet
  facet normal 0 0 -1
    outer loop
      vertex 0.209045 1.98903 0
      vertex -0.209045 1.98903 0
      vertex -0.418106 3.97807 0
    endloop
  endfacet
  facet normal 0 0 -1
    outer loop
      vertex 0.618027 1.9021 0
      vertex 0.209045 1.98903 0
      vertex 0.418106 3.97807 0
    endloop
  endfacet
  facet normal 0 0 -1
    outer loop
      vertex 0.418106 3.97807 0
      vertex 1.23605 3.80421 0
      vertex 0.618027 1.9021 0
    endloop
  endfacet
  facet normal 0 -0 -1
    outer loop
      vertex 2 3.4641 0
      vertex 2.67651 2.97256 0
      vertex 1 1.73204 0
    endloop
  endfacet
  facet normal -0 0 -1
    outer loop
      vertex 2 3.4641 0
      vertex 1 1.73204 0
      vertex 1.23605 3.80421 0
    endloop
  endfacet
  facet normal 0 0 -1
    outer loop
      vertex 2.67651 2.97256 0
      vertex 1.61803 1.17557 0
      vertex 1.33826 1.48628 0
    endloop
  endfacet
  facet normal 0 0 -1
    outer loop
      vertex 2.67651 2.97256 0
      vertex 1.33826 1.48628 0
      vertex 1 1.73204 0
    endloop
  endfacet
  facet normal -0 0 -1
    outer loop
      vertex 3.65417 1.62694 0
      vertex 1.61803 1.17557 0
      vertex 3.23605 2.35114 0
    endloop
  endfacet
  facet normal 0 0 -1
    outer loop
      vertex 1.61803 1.17557 0
      vertex 3.65417 1.62694 0
      vertex 1.82709 0.813461 0
    endloop
  endfacet
  facet normal 0 0 -1
    outer loop
      vertex 2 0 0
      vertex 1.95628 0.415817 0
      vertex 3.91258 0.831635 0
    endloop
  endfacet
  facet normal 0 0 -1
    outer loop
      vertex 4 0 0
      vertex 2 0 0
      vertex 3.91258 0.831635 0
    endloop
  endfacet
  facet normal 0 0 -1
    outer loop
      vertex 3.91258 -0.831635 0
      vertex 1.95628 -0.415817 0
      vertex 2 0 0
    endloop
  endfacet
  facet normal 0 0 -1
    outer loop
      vertex 3.91258 -0.831635 0
      vertex 1.82709 -0.813461 0
      vertex 1.95628 -0.415817 0
    endloop
  endfacet
  facet normal 0 0 -1
    outer loop
      vertex 3.65417 -1.62694 0
      vertex 1.61803 -1.17557 0
      vertex 1.82709 -0.813461 0
    endloop
  endfacet
  facet normal -0 0 -1
    outer loop
      vertex 3.65417 -1.62694 0
      vertex 3.23605 -2.35114 0
      vertex 1.61803 -1.17557 0
    endloop
  endfacet
  facet normal 0 0 -1
    outer loop
      vertex 1.61803 -1.17557 0
      vertex 3.23605 -2.35114 0
      vertex 2.67651 -2.97256 0
    endloop
  endfacet
  facet normal 0 -0 -1
    outer loop
      vertex 1.33826 -1.48628 0
      vertex 2.67651 -2.97256 0
      vertex 1 -1.73204 0
    endloop
  endfacet
  facet normal 0 0 -1
    outer loop
      vertex 1 -1.73204 0
      vertex 2 -3.4641 0
      vertex 1.23605 -3.80421 0
    endloop
  endfacet
  facet normal 0 0 -1
    outer loop
      vertex 0.209045 -1.98903 0
      vertex 0.618027 -1.9021 0
      vertex 0.418106 -3.97807 0
    endloop
  endfacet
  facet normal 0 0 -1
    outer loop
      vertex 0.618027 -1.9021 0
      vertex 1 -1.73204 0
      vertex 1.23605 -3.80421 0
    endloop
  endfacet
  facet normal 0 0 1
    outer loop
      vertex 2.67651 -2.97256 2
      vertex 1.61803 -1.17557 2
      vertex 1.33826 -1.48628 2
    endloop
  endfacet
  facet normal 0 -0 1
    outer loop
      vertex 2 -3.4641 2
      vertex 2.67651 -2.97256 2
      vertex 1 -1.73204 2
    endloop
  endfacet
  facet normal 0 0 1
    outer loop
      vertex 3.91258 0.831635 2
      vertex 1.82709 0.813461 2
      vertex 1.95628 0.415817 2
    endloop
  endfacet
  facet normal 0 0 1
    outer loop
      vertex 3.23605 2.35114 2
      vertex 2.67651 2.97256 2
      vertex 1.61803 1.17557 2
    endloop
  endfacet
  facet normal 0 0 1
    outer loop
      vertex 3.91258 0.831635 2
      vertex 3.65417 1.62694 2
      vertex 1.82709 0.813461 2
    endloop
  endfacet
  facet normal 0 -0 1
    outer loop
      vertex 1 1.73204 2
      vertex 1.23605 3.80421 2
      vertex 0.618027 1.9021 2
    endloop
  endfacet
  facet normal 0 0 1
    outer loop
      vertex 4 0 2
      vertex 2 0 2
      vertex 3.91258 -0.831635 2
    endloop
  endfacet
  facet normal 0 0 1
    outer loop
      vertex -0.418106 3.97807 2
      vertex -0.618027 1.9021 2
      vertex -0.209045 1.98903 2
    endloop
  endfacet
  facet normal 0 0 1
    outer loop
      vertex -0.418106 3.97807 2
      vertex -1.23605 3.80421 2
      vertex -0.618027 1.9021 2
    endloop
  endfacet
  facet normal 0 0 1
    outer loop
      vertex 0.418106 3.97807 2
      vertex -0.418106 3.97807 2
      vertex 0.209045 1.98903 2
    endloop
  endfacet
  facet normal 0 0 1
    outer loop
      vertex -3.65417 1.62694 2
      vertex -3.91258 0.831635 2
      vertex -1.82709 0.813461 2
    endloop
  endfacet
  facet normal 0 0 1
    outer loop
      vertex -3.91258 0.831635 2
      vertex -4 0 2
      vertex -2 0 2
    endloop
  endfacet
  facet normal 0 0 1
    outer loop
      vertex -1 -1.73204 2
      vertex -1.23605 -3.80421 2
      vertex -0.618027 -1.9021 2
    endloop
  endfacet
  facet normal 0 0 1
    outer loop
      vertex -3.91258 -0.831635 2
      vertex -1.82709 -0.813461 2
      vertex -1.95628 -0.415817 2
    endloop
  endfacet
  facet normal 0 0 1
    outer loop
      vertex -1.61803 -1.17557 2
      vertex -2.67651 -2.97256 2
      vertex -1.33826 -1.48628 2
    endloop
  endfacet
  facet normal -0 0 1
    outer loop
      vertex -3.23605 -2.35114 2
      vertex -2.67651 -2.97256 2
      vertex -1.61803 -1.17557 2
    endloop
  endfacet
  facet normal 0 0 1
    outer loop
      vertex -3.65417 -1.62694 2
      vertex -1.61803 -1.17557 2
      vertex -1.82709 -0.813461 2
    endloop
  endfacet
  facet normal -0 0 1
    outer loop
      vertex -2 -3.4641 2
      vertex -1.23605 -3.80421 2
      vertex -1 -1.73204 2
    endloop
  endfacet
  facet normal -0 0 1
    outer loop
      vertex -1.23605 -3.80421 2
      vertex -0.418106 -3.97807 2
      vertex -0.618027 -1.9021 2
    endloop
  endfacet
  facet normal 0 0 1
    outer loop
      vertex 0.209045 -1.98903 2
      vertex -0.209045 -1.98903 2
      vertex -0.418106 -3.97807 2
    endloop
  endfacet
  facet normal 0 0 1
    outer loop
      vertex -0.209045 -1.98903 2
      vertex -0.618027 -1.9021 2
      vertex -0.418106 -3.97807 2
    endloop
  endfacet
  facet normal 0 0 1
    outer loop
      vertex 0.618027 -1.9021 2
      vertex 0.418106 -3.97807 2
      vertex 1.23605 -3.80421 2
    endloop
  endfacet
  facet normal 0 0 1
    outer loop
      vertex -0.418106 -3.97807 2
      vertex 0.418106 -3.97807 2
      vertex 0.209045 -1.98903 2
    endloop
  endfacet
  facet normal 0 0 1
    outer loop
      vertex 1.82709 -0.813461 2
      vertex 3.65417 -1.62694 2
      vertex 3.91258 -0.831635 2
    endloop
  endfacet
  facet normal 0 0 1
    outer loop
      vertex -3.91258 0.831635 2
      vertex -2 0 2
      vertex -1.95628 0.415817 2
    endloop
  endfacet
  facet normal 0 -0 1
    outer loop
      vertex -2 -3.4641 2
      vertex -1 -1.73204 2
      vertex -2.67651 -2.97256 2
    endloop
  endfacet
  facet normal 0 0 1
    outer loop
      vertex -1.33826 -1.48628 2
      vertex -2.67651 -2.97256 2
      vertex -1 -1.73204 2
    endloop
  endfacet
  facet normal 0 -0 1
    outer loop
      vertex -3.23605 -2.35114 2
      vertex -1.61803 -1.17557 2
      vertex -3.65417 -1.62694 2
    endloop
  endfacet
  facet normal 0 -0 1
    outer loop
      vertex -3.65417 -1.62694 2
      vertex -1.82709 -0.813461 2
      vertex -3.91258 -0.831635 2
    endloop
  endfacet
  facet normal 0 0 1
    outer loop
      vertex -3.91258 -0.831635 2
      vertex -1.95628 -0.415817 2
      vertex -2 0 2
    endloop
  endfacet
  facet normal 0 0 1
    outer loop
      vertex -2 0 2
      vertex -4 0 2
      vertex -3.91258 -0.831635 2
    endloop
  endfacet
  facet normal 0 0 1
    outer loop
      vertex -3.91258 0.831635 2
      vertex -1.95628 0.415817 2
      vertex -1.82709 0.813461 2
    endloop
  endfacet
  facet normal 0 0 1
    outer loop
      vertex -3.65417 1.62694 2
      vertex -1.82709 0.813461 2
      vertex -1.61803 1.17557 2
    endloop
  endfacet
  facet normal 0 0 1
    outer loop
      vertex -1.61803 1.17557 2
      vertex -2.67651 2.97256 2
      vertex -3.23605 2.35114 2
    endloop
  endfacet
  facet normal -0 0 1
    outer loop
      vertex -3.65417 1.62694 2
      vertex -1.61803 1.17557 2
      vertex -3.23605 2.35114 2
    endloop
  endfacet
  facet normal 0 -0 1
    outer loop
      vertex -1.33826 1.48628 2
      vertex -1 1.73204 2
      vertex -2.67651 2.97256 2
    endloop
  endfacet
  facet normal 0 -0 1
    outer loop
      vertex -1.61803 1.17557 2
      vertex -1.33826 1.48628 2
      vertex -2.67651 2.97256 2
    endloop
  endfacet
  facet normal 0 0 1
    outer loop
      vertex -1 1.73204 2
      vertex -1.23605 3.80421 2
      vertex -2 3.4641 2
    endloop
  endfacet
  facet normal -0 0 1
    outer loop
      vertex -2.67651 2.97256 2
      vertex -1 1.73204 2
      vertex -2 3.4641 2
    endloop
  endfacet
  facet normal 0 0 1
    outer loop
      vertex -0.618027 1.9021 2
      vertex -1.23605 3.80421 2
      vertex -1 1.73204 2
    endloop
  endfacet
  facet normal 0 0 1
    outer loop
      vertex -0.418106 3.97807 2
      vertex -0.209045 1.98903 2
      vertex 0.209045 1.98903 2
    endloop
  endfacet
  facet normal 0 0 1
    outer loop
      vertex 0.418106 3.97807 2
      vertex 0.209045 1.98903 2
      vertex 0.618027 1.9021 2
    endloop
  endfacet
  facet normal 0 -0 1
    outer loop
      vertex 0.618027 1.9021 2
      vertex 1.23605 3.80421 2
      vertex 0.418106 3.97807 2
    endloop
  endfacet
  facet normal 0 0 1
    outer loop
      vertex 1 1.73204 2
      vertex 2.67651 2.97256 2
      vertex 2 3.4641 2
    endloop
  endfacet
  facet normal 0 0 1
    outer loop
      vertex 1.23605 3.80421 2
      vertex 1 1.73204 2
      vertex 2 3.4641 2
    endloop
  endfacet
  facet normal -0 0 1
    outer loop
      vertex 1.33826 1.48628 2
      vertex 1.61803 1.17557 2
      vertex 2.67651 2.97256 2
    endloop
  endfacet
  facet normal -0 0 1
    outer loop
      vertex 1 1.73204 2
      vertex 1.33826 1.48628 2
      vertex 2.67651 2.97256 2
    endloop
  endfacet
  facet normal 0 0 1
    outer loop
      vertex 3.23605 2.35114 2
      vertex 1.61803 1.17557 2
      vertex 3.65417 1.62694 2
    endloop
  endfacet
  facet normal 0 -0 1
    outer loop
      vertex 1.82709 0.813461 2
      vertex 3.65417 1.62694 2
      vertex 1.61803 1.17557 2
    endloop
  endfacet
  facet normal 0 0 1
    outer loop
      vertex 3.91258 0.831635 2
      vertex 1.95628 0.415817 2
      vertex 2 0 2
    endloop
  endfacet
  facet normal 0 0 1
    outer loop
      vertex 3.91258 0.831635 2
      vertex 2 0 2
      vertex 4 0 2
    endloop
  endfacet
  facet normal 0 0 1
    outer loop
      vertex 2 0 2
      vertex 1.95628 -0.415817 2
      vertex 3.91258 -0.831635 2
    endloop
  endfacet
  facet normal 0 0 1
    outer loop
      vertex 1.95628 -0.415817 2
      vertex 1.82709 -0.813461 2
      vertex 3.91258 -0.831635 2
    endloop
  endfacet
  facet normal 0 0 1
    outer loop
      vertex 1.82709 -0.813461 2
      vertex 1.61803 -1.17557 2
      vertex 3.65417 -1.62694 2
    endloop
  endfacet
  facet normal 0 0 1
    outer loop
      vertex 1.61803 -1.17557 2
      vertex 3.23605 -2.35114 2
      vertex 3.65417 -1.62694 2
    endloop
  endfacet
  facet normal 0 -0 1
    outer loop
      vertex 2.67651 -2.97256 2
      vertex 3.23605 -2.35114 2
      vertex 1.61803 -1.17557 2
    endloop
  endfacet
  facet normal -0 0 1
    outer loop
      vertex 1 -1.73204 2
      vertex 2.67651 -2.97256 2
      vertex 1.33826 -1.48628 2
    endloop
  endfacet
  facet normal 0 -0 1
    outer loop
      vertex 1.23605 -3.80421 2
      vertex 2 -3.4641 2
      vertex 1 -1.73204 2
    endloop
  endfacet
  facet normal 0 -0 1
    outer loop
      vertex 0.418106 -3.97807 2
      vertex 0.618027 -1.9021 2
      vertex 0.209045 -1.98903 2
    endloop
  endfacet
  facet normal 0 0 1
    outer loop
      vertex 1.23605 -3.80421 2
      vertex 1 -1.73204 2
      vertex 0.618027 -1.9021 2
    endloop
  endfacet
  facet normal 0.406714 -0.913555 0
    outer loop
      vertex 2 -3.4641 0
      vertex 1.23605 -3.80421 2
      vertex 1.23605 -3.80421 0
    endloop
  endfacet
  facet normal 0.406714 -0.913555 0
    outer loop
      vertex 2 -3.4641 0
      vertex 2 -3.4641 2
      vertex 1.23605 -3.80421 2
    endloop
  endfacet
  facet normal 0.587806 -0.809002 0
    outer loop
      vertex 2.67651 -2.97256 0
      vertex 2 -3.4641 2
      vertex 2 -3.4641 0
    endloop
  endfacet
  facet normal 0.587806 -0.809002 0
    outer loop
      vertex 2.67651 -2.97256 0
      vertex 2.67651 -2.97256 2
      vertex 2 -3.4641 2
    endloop
  endfacet
  facet normal 0.743138 -0.669138 0
    outer loop
      vertex 3.23605 -2.35114 0
      vertex 2.67651 -2.97256 2
      vertex 2.67651 -2.97256 0
    endloop
  endfacet
  facet normal 0.743138 -0.669138 0
    outer loop
      vertex 3.23605 -2.35114 0
      vertex 3.23605 -2.35114 2
      vertex 2.67651 -2.97256 2
    endloop
  endfacet
  facet normal 0.866024 -0.500003 0
    outer loop
      vertex 3.65417 -1.62694 0
      vertex 3.23605 -2.35114 2
      vertex 3.23605 -2.35114 0
    endloop
  endfacet
  facet normal 0.866024 -0.500003 0
    outer loop
      vertex 3.65417 -1.62694 0
      vertex 3.65417 -1.62694 2
      vertex 3.23605 -2.35114 2
    endloop
  endfacet
  facet normal 0.951057 -0.309017 0
    outer loop
      vertex 3.91258 -0.831635 0
      vertex 3.65417 -1.62694 2
      vertex 3.65417 -1.62694 0
    endloop
  endfacet
  facet normal 0.951057 -0.309017 0
    outer loop
      vertex 3.91258 -0.831635 0
      vertex 3.91258 -0.831635 2
      vertex 3.65417 -1.62694 2
    endloop
  endfacet
  facet normal 0.99452 -0.104542 0
    outer loop
      vertex 4 0 0
      vertex 3.91258 -0.831635 2
      vertex 3.91258 -0.831635 0
    endloop
  endfacet
  facet normal 0.99452 -0.104542 0
    outer loop
      vertex 4 0 0
      vertex 4 0 2
      vertex 3.91258 -0.831635 2
    endloop
  endfacet
  facet normal 0.99452 0.104542 0
    outer loop
      vertex 3.91258 0.831635 0
      vertex 4 0 2
      vertex 4 0 0
    endloop
  endfacet
  facet normal 0.99452 0.104542 -0
    outer loop
      vertex 3.91258 0.831635 0
      vertex 3.91258 0.831635 2
      vertex 4 0 2
    endloop
  endfacet
  facet normal 0.951057 0.309017 0
    outer loop
      vertex 3.65417 1.62694 0
      vertex 3.91258 0.831635 2
      vertex 3.91258 0.831635 0
    endloop
  endfacet
  facet normal 0.951057 0.309017 -0
    outer loop
      vertex 3.65417 1.62694 0
      vertex 3.65417 1.62694 2
      vertex 3.91258 0.831635 2
    endloop
  endfacet
  facet normal 0.866024 0.500003 0
    outer loop
      vertex 3.23605 2.35114 0
      vertex 3.65417 1.62694 2
      vertex 3.65417 1.62694 0
    endloop
  endfacet
  facet normal 0.866024 0.500003 -0
    outer loop
      vertex 3.23605 2.35114 0
      vertex 3.23605 2.35114 2
      vertex 3.65417 1.62694 2
    endloop
  endfacet
  facet normal 0.743138 0.669138 0
    outer loop
      vertex 2.67651 2.97256 0
      vertex 3.23605 2.35114 2
      vertex 3.23605 2.35114 0
    endloop
  endfacet
  facet normal 0.743138 0.669138 -0
    outer loop
      vertex 2.67651 2.97256 0
      vertex 2.67651 2.97256 2
      vertex 3.23605 2.35114 2
    endloop
  endfacet
  facet normal 0.587806 0.809002 0
    outer loop
      vertex 2 3.4641 0
      vertex 2.67651 2.97256 2
      vertex 2.67651 2.97256 0
    endloop
  endfacet
  facet normal 0.587806 0.809002 -0
    outer loop
      vertex 2 3.4641 0
      vertex 2 3.4641 2
      vertex 2.67651 2.97256 2
    endloop
  endfacet
  facet normal 0.406714 0.913555 0
    outer loop
      vertex 1.23605 3.80421 0
      vertex 2 3.4641 2
      vertex 2 3.4641 0
    endloop
  endfacet
  facet normal 0.406714 0.913555 -0
    outer loop
      vertex 1.23605 3.80421 0
      vertex 1.23605 3.80421 2
      vertex 2 3.4641 2
    endloop
  endfacet
  facet normal 0.207912 0.978147 0
    outer loop
      vertex 0.418106 3.97807 0
      vertex 1.23605 3.80421 2
      vertex 1.23605 3.80421 0
    endloop
  endfacet
  facet normal 0.207912 0.978147 -0
    outer loop
      vertex 0.418106 3.97807 0
      vertex 0.418106 3.97807 2
      vertex 1.23605 3.80421 2
    endloop
  endfacet
  facet normal 0 1 0
    outer loop
      vertex -0.418106 3.97807 0
      vertex 0.418106 3.97807 2
      vertex 0.418106 3.97807 0
    endloop
  endfacet
  facet normal 0 1 0
    outer loop
      vertex -0.418106 3.97807 0
      vertex -0.418106 3.97807 2
      vertex 0.418106 3.97807 2
    endloop
  endfacet
  facet normal -0.207912 0.978147 0
    outer loop
      vertex -1.23605 3.80421 0
      vertex -0.418106 3.97807 2
      vertex -0.418106 3.97807 0
    endloop
  endfacet
  facet normal -0.207912 0.978147 0
    outer loop
      vertex -1.23605 3.80421 0
      vertex -1.23605 3.80421 2
      vertex -0.418106 3.97807 2
    endloop
  endfacet
  facet normal -0.406714 0.913555 0
    outer loop
      vertex -2 3.4641 0
      vertex -1.23605 3.80421 2
      vertex -1.23605 3.80421 0
    endloop
  endfacet
  facet normal -0.406714 0.913555 0
    outer loop
      vertex -2 3.4641 0
      vertex -2 3.4641 2
      vertex -1.23605 3.80421 2
    endloop
  endfacet
  facet normal -0.587806 0.809002 0
    outer loop
      vertex -2.67651 2.97256 0
      vertex -2 3.4641 2
      vertex -2 3.4641 0
    endloop
  endfacet
  facet normal -0.587806 0.809002 0
    outer loop
      vertex -2.67651 2.97256 0
      vertex -2.67651 2.97256 2
      vertex -2 3.4641 2
    endloop
  endfacet
  facet normal -0.743138 0.669138 0
    outer loop
      vertex -3.23605 2.35114 0
      vertex -2.67651 2.97256 2
      vertex -2.67651 2.97256 0
    endloop
  endfacet
  facet normal -0.743138 0.669138 0
    outer loop
      vertex -3.23605 2.35114 0
      vertex -3.23605 2.35114 2
      vertex -2.67651 2.97256 2
    endloop
  endfacet
  facet normal -0.866024 0.500003 0
    outer loop
      vertex -3.65417 1.62694 0
      vertex -3.23605 2.35114 2
      vertex -3.23605 2.35114 0
    endloop
  endfacet
  facet normal -0.866024 0.500003 0
    outer loop
      vertex -3.65417 1.62694 0
      vertex -3.65417 1.62694 2
      vertex -3.23605 2.35114 2
    endloop
  endfacet
  facet normal -0.951057 0.309017 0
    outer loop
      vertex -3.91258 0.831635 0
      vertex -3.65417 1.62694 2
      vertex -3.65417 1.62694 0
    endloop
  endfacet
  facet normal -0.951057 0.309017 0
    outer loop
      vertex -3.91258 0.831635 0
      vertex -3.91258 0.831635 2
      vertex -3.65417 1.62694 2
    endloop
  endfacet
  facet normal -0.99452 0.104542 0
    outer loop
      vertex -4 0 0
      vertex -3.91258 0.831635 2
      vertex -3.91258 0.831635 0
    endloop
  endfacet
  facet normal -0.99452 0.104542 0
    outer loop
      vertex -4 0 0
      vertex -4 0 2
      vertex -3.91258 0.831635 2
    endloop
  endfacet
  facet normal -0.99452 -0.104542 0
    outer loop
      vertex -3.91258 -0.831635 0
      vertex -4 0 2
      vertex -4 0 0
    endloop
  endfacet
  facet normal -0.99452 -0.104542 0
    outer loop
      vertex -3.91258 -0.831635 0
      vertex -3.91258 -0.831635 2
      vertex -4 0 2
    endloop
  endfacet
  facet normal -0.951057 -0.309017 0
    outer loop
      vertex -3.65417 -1.62694 0
      vertex -3.91258 -0.831635 2
      vertex -3.91258 -0.831635 0
    endloop
  endfacet
  facet normal -0.951057 -0.309017 0
    outer loop
      vertex -3.65417 -1.62694 0
      vertex -3.65417 -1.62694 2
      vertex -3.91258 -0.831635 2
    endloop
  endfacet
  facet normal -0.866024 -0.500003 0
    outer loop
      vertex -3.23605 -2.35114 0
      vertex -3.65417 -1.62694 2
      vertex -3.65417 -1.62694 0
    endloop
  endfacet
  facet normal -0.866024 -0.500003 0
    outer loop
      vertex -3.23605 -2.35114 0
      vertex -3.23605 -2.35114 2
      vertex -3.65417 -1.62694 2
    endloop
  endfacet
  facet normal -0.743138 -0.669138 0
    outer loop
      vertex -2.67651 -2.97256 0
      vertex -3.23605 -2.35114 2
      vertex -3.23605 -2.35114 0
    endloop
  endfacet
  facet normal -0.743138 -0.669138 0
    outer loop
      vertex -2.67651 -2.97256 0
      vertex -2.67651 -2.97256 2
      vertex -3.23605 -2.35114 2
    endloop
  endfacet
  facet normal -0.587806 -0.809002 0
    outer loop
      vertex -2 -3.4641 0
      vertex -2.67651 -2.97256 2
      vertex -2.67651 -2.97256 0
    endloop
  endfacet
  facet normal -0.587806 -0.809002 0
    outer loop
      vertex -2 -3.4641 0
      vertex -2 -3.4641 2
      vertex -2.67651 -2.97256 2
    endloop
  endfacet
  facet normal -0.406714 -0.913555 0
    outer loop
      vertex -1.23605 -3.80421 0
      vertex -2 -3.4641 2
      vertex -2 -3.4641 0
    endloop
  endfacet
  facet normal -0.406714 -0.913555 0
    outer loop
      vertex -1.23605 -3.80421 0
      vertex -1.23605 -3.80421 2
      vertex -2 -3.4641 2
    endloop
  endfacet
  facet normal -0.207912 -0.978147 0
    outer loop
      vertex -0.418106 -3.97807 0
      vertex -1.23605 -3.80421 2
      vertex -1.23605 -3.80421 0
    endloop
  endfacet
  facet normal -0.207912 -0.978147 0
    outer loop
      vertex -0.418106 -3.97807 0
      vertex -0.418106 -3.97807 2
      vertex -1.23605 -3.80421 2
    endloop
  endfacet
  facet normal 0 -1 0
    outer loop
      vertex 0.418106 -3.97807 0
      vertex -0.418106 -3.97807 2
      vertex -0.418106 -3.97807 0
    endloop
  endfacet
  facet normal 0 -1 0
    outer loop
      vertex 0.418106 -3.97807 0
      vertex 0.418106 -3.97807 2
      vertex -0.418106 -3.97807 2
    endloop
  endfacet
  facet normal 0.207912 -0.978147 0
    outer loop
      vertex 1.23605 -3.80421 0
      vertex 0.418106 -3.97807 2
      vertex 0.418106 -3.97807 0
    endloop
  endfacet
  facet normal 0.207912 -0.978147 0
    outer loop
      vertex 1.23605 -3.80421 0
      vertex 1.23605 -3.80421 2
      vertex 0.418106 -3.97807 2
    endloop
  endfacet
  facet normal 0.207908 0.978148 -0
    outer loop
      vertex -0.618027 -1.9021 0
      vertex -0.618027 -1.9021 2
      vertex -0.209045 -1.98903 0
    endloop
  endfacet
  facet normal 0.207908 0.978148 0
    outer loop
      vertex -0.209045 -1.98903 2
      vertex -0.209045 -1.98903 0
      vertex -0.618027 -1.9021 2
    endloop
  endfacet
  facet normal 0.406726 0.91355 -0
    outer loop
      vertex -1 -1.73204 0
      vertex -1 -1.73204 2
      vertex -0.618027 -1.9021 0
    endloop
  endfacet
  facet normal 0.406726 0.91355 0
    outer loop
      vertex -0.618027 -1.9021 2
      vertex -0.618027 -1.9021 0
      vertex -1 -1.73204 2
    endloop
  endfacet
  facet normal 0.587785 0.809017 -0
    outer loop
      vertex -1.33826 -1.48628 0
      vertex -1.33826 -1.48628 2
      vertex -1 -1.73204 0
    endloop
  endfacet
  facet normal 0.587785 0.809017 0
    outer loop
      vertex -1 -1.73204 2
      vertex -1 -1.73204 0
      vertex -1.33826 -1.48628 2
    endloop
  endfacet
  facet normal 0.743138 0.669138 -0
    outer loop
      vertex -1.61803 -1.17557 0
      vertex -1.61803 -1.17557 2
      vertex -1.33826 -1.48628 0
    endloop
  endfacet
  facet normal 0.743138 0.669138 0
    outer loop
      vertex -1.33826 -1.48628 2
      vertex -1.33826 -1.48628 0
      vertex -1.61803 -1.17557 2
    endloop
  endfacet
  facet normal 0.866029 0.499993 -0
    outer loop
      vertex -1.82709 -0.813461 0
      vertex -1.82709 -0.813461 2
      vertex -1.61803 -1.17557 0
    endloop
  endfacet
  facet normal 0.866029 0.499993 0
    outer loop
      vertex -1.61803 -1.17557 2
      vertex -1.61803 -1.17557 0
      vertex -1.82709 -0.813461 2
    endloop
  endfacet
  facet normal 0.951065 0.30899 -0
    outer loop
      vertex -1.95628 -0.415817 0
      vertex -1.95628 -0.415817 2
      vertex -1.82709 -0.813461 0
    endloop
  endfacet
  facet normal 0.951065 0.30899 0
    outer loop
      vertex -1.82709 -0.813461 2
      vertex -1.82709 -0.813461 0
      vertex -1.95628 -0.415817 2
    endloop
  endfacet
  facet normal 0.994518 0.104566 -0
    outer loop
      vertex -2 0 0
      vertex -2 0 2
      vertex -1.95628 -0.415817 0
    endloop
  endfacet
  facet normal 0.994518 0.104566 0
    outer loop
      vertex -1.95628 -0.415817 2
      vertex -1.95628 -0.415817 0
      vertex -2 0 2
    endloop
  endfacet
  facet normal 0.994518 -0.104566 0
    outer loop
      vertex -1.95628 0.415817 0
      vertex -1.95628 0.415817 2
      vertex -2 0 0
    endloop
  endfacet
  facet normal 0.994518 -0.104566 0
    outer loop
      vertex -2 0 2
      vertex -2 0 0
      vertex -1.95628 0.415817 2
    endloop
  endfacet
  facet normal 0.951065 -0.30899 0
    outer loop
      vertex -1.82709 0.813461 0
      vertex -1.82709 0.813461 2
      vertex -1.95628 0.415817 0
    endloop
  endfacet
  facet normal 0.951065 -0.30899 0
    outer loop
      vertex -1.95628 0.415817 2
      vertex -1.95628 0.415817 0
      vertex -1.82709 0.813461 2
    endloop
  endfacet
  facet normal 0.866029 -0.499993 0
    outer loop
      vertex -1.61803 1.17557 0
      vertex -1.61803 1.17557 2
      vertex -1.82709 0.813461 0
    endloop
  endfacet
  facet normal 0.866029 -0.499993 0
    outer loop
      vertex -1.82709 0.813461 2
      vertex -1.82709 0.813461 0
      vertex -1.61803 1.17557 2
    endloop
  endfacet
  facet normal 0.743138 -0.669138 0
    outer loop
      vertex -1.33826 1.48628 0
      vertex -1.33826 1.48628 2
      vertex -1.61803 1.17557 0
    endloop
  endfacet
  facet normal 0.743138 -0.669138 0
    outer loop
      vertex -1.61803 1.17557 2
      vertex -1.61803 1.17557 0
      vertex -1.33826 1.48628 2
    endloop
  endfacet
  facet normal 0.587785 -0.809017 0
    outer loop
      vertex -1 1.73204 0
      vertex -1 1.73204 2
      vertex -1.33826 1.48628 0
    endloop
  endfacet
  facet normal 0.587785 -0.809017 0
    outer loop
      vertex -1.33826 1.48628 2
      vertex -1.33826 1.48628 0
      vertex -1 1.73204 2
    endloop
  endfacet
  facet normal 0.406726 -0.91355 0
    outer loop
      vertex -0.618027 1.9021 0
      vertex -0.618027 1.9021 2
      vertex -1 1.73204 0
    endloop
  endfacet
  facet normal 0.406726 -0.91355 0
    outer loop
      vertex -1 1.73204 2
      vertex -1 1.73204 0
      vertex -0.618027 1.9021 2
    endloop
  endfacet
  facet normal 0.207908 -0.978148 0
    outer loop
      vertex -0.209045 1.98903 0
      vertex -0.209045 1.98903 2
      vertex -0.618027 1.9021 0
    endloop
  endfacet
  facet normal 0.207908 -0.978148 0
    outer loop
      vertex -0.618027 1.9021 2
      vertex -0.618027 1.9021 0
      vertex -0.209045 1.98903 2
    endloop
  endfacet
  facet normal 0 -1 0
    outer loop
      vertex 0.209045 1.98903 0
      vertex 0.209045 1.98903 2
      vertex -0.209045 1.98903 0
    endloop
  endfacet
  facet normal 0 -1 0
    outer loop
      vertex -0.209045 1.98903 2
      vertex -0.209045 1.98903 0
      vertex 0.209045 1.98903 2
    endloop
  endfacet
  facet normal -0.207908 -0.978148 0
    outer loop
      vertex 0.618027 1.9021 0
      vertex 0.618027 1.9021 2
      vertex 0.209045 1.98903 0
    endloop
  endfacet
  facet normal -0.207908 -0.978148 -0
    outer loop
      vertex 0.209045 1.98903 2
      vertex 0.209045 1.98903 0
      vertex 0.618027 1.9021 2
    endloop
  endfacet
  facet normal -0.406726 -0.91355 0
    outer loop
      vertex 1 1.73204 0
      vertex 1 1.73204 2
      vertex 0.618027 1.9021 0
    endloop
  endfacet
  facet normal -0.406726 -0.91355 -0
    outer loop
      vertex 0.618027 1.9021 2
      vertex 0.618027 1.9021 0
      vertex 1 1.73204 2
    endloop
  endfacet
  facet normal -0.587785 -0.809017 0
    outer loop
      vertex 1.33826 1.48628 0
      vertex 1.33826 1.48628 2
      vertex 1 1.73204 0
    endloop
  endfacet
  facet normal -0.587785 -0.809017 -0
    outer loop
      vertex 1 1.73204 2
      vertex 1 1.73204 0
      vertex 1.33826 1.48628 2
    endloop
  endfacet
  facet normal -0.743138 -0.669138 0
    outer loop
      vertex 1.61803 1.17557 0
      vertex 1.61803 1.17557 2
      vertex 1.33826 1.48628 0
    endloop
  endfacet
  facet normal -0.743138 -0.669138 -0
    outer loop
      vertex 1.33826 1.48628 2
      vertex 1.33826 1.48628 0
      vertex 1.61803 1.17557 2
    endloop
  endfacet
  facet normal -0.866029 -0.499993 0
    outer loop
      vertex 1.82709 0.813461 0
      vertex 1.82709 0.813461 2
      vertex 1.61803 1.17557 0
    endloop
  endfacet
  facet normal -0.866029 -0.499993 -0
    outer loop
      vertex 1.61803 1.17557 2
      vertex 1.61803 1.17557 0
      vertex 1.82709 0.813461 2
    endloop
  endfacet
  facet normal -0.951065 -0.30899 0
    outer loop
      vertex 1.95628 0.415817 0
      vertex 1.95628 0.415817 2
      vertex 1.82709 0.813461 0
    endloop
  endfacet
  facet normal -0.951065 -0.30899 -0
    outer loop
      vertex 1.82709 0.813461 2
      vertex 1.82709 0.813461 0
      vertex 1.95628 0.415817 2
    endloop
  endfacet
  facet normal -0.994518 -0.104566 0
    outer loop
      vertex 2 0 0
      vertex 2 0 2
      vertex 1.95628 0.415817 0
    endloop
  endfacet
  facet normal -0.994518 -0.104566 -0
    outer loop
      vertex 1.95628 0.415817 2
      vertex 1.95628 0.415817 0
      vertex 2 0 2
    endloop
  endfacet
  facet normal -0.994518 0.104566 0
    outer loop
      vertex 1.95628 -0.415817 0
      vertex 1.95628 -0.415817 2
      vertex 2 0 0
    endloop
  endfacet
  facet normal -0.994518 0.104566 0
    outer loop
      vertex 2 0 2
      vertex 2 0 0
      vertex 1.95628 -0.415817 2
    endloop
  endfacet
  facet normal -0.951065 0.30899 0
    outer loop
      vertex 1.82709 -0.813461 0
      vertex 1.82709 -0.813461 2
      vertex 1.95628 -0.415817 0
    endloop
  endfacet
  facet normal -0.951065 0.30899 0
    outer loop
      vertex 1.95628 -0.415817 2
      vertex 1.95628 -0.415817 0
      vertex 1.82709 -0.813461 2
    endloop
  endfacet
  facet normal -0.866029 0.499993 0
    outer loop
      vertex 1.61803 -1.17557 0
      vertex 1.61803 -1.17557 2
      vertex 1.82709 -0.813461 0
    endloop
  endfacet
  facet normal -0.866029 0.499993 0
    outer loop
      vertex 1.82709 -0.813461 2
      vertex 1.82709 -0.813461 0
      vertex 1.61803 -1.17557 2
    endloop
  endfacet
  facet normal -0.743138 0.669138 0
    outer loop
      vertex 1.33826 -1.48628 0
      vertex 1.33826 -1.48628 2
      vertex 1.61803 -1.17557 0
    endloop
  endfacet
  facet normal -0.743138 0.669138 0
    outer loop
      vertex 1.61803 -1.17557 2
      vertex 1.61803 -1.17557 0
      vertex 1.33826 -1.48628 2
    endloop
  endfacet
  facet normal -0.587785 0.809017 0
    outer loop
      vertex 1 -1.73204 0
      vertex 1 -1.73204 2
      vertex 1.33826 -1.48628 0
    endloop
  endfacet
  facet normal -0.587785 0.809017 0
    outer loop
      vertex 1.33826 -1.48628 2
      vertex 1.33826 -1.48628 0
      vertex 1 -1.73204 2
    endloop
  endfacet
  facet normal -0.406726 0.91355 0
    outer loop
      vertex 0.618027 -1.9021 0
      vertex 0.618027 -1.9021 2
      vertex 1 -1.73204 0
    endloop
  endfacet
  facet normal -0.406726 0.91355 0
    outer loop
      vertex 1 -1.73204 2
      vertex 1 -1.73204 0
      vertex 0.618027 -1.9021 2
    endloop
  endfacet
  facet normal -0.207908 0.978148 0
    outer loop
      vertex 0.209045 -1.98903 0
      vertex 0.209045 -1.98903 2
      vertex 0.618027 -1.9021 0
    endloop
  endfacet
  facet normal -0.207908 0.978148 0
    outer loop
      vertex 0.618027 -1.9021 2
      vertex 0.618027 -1.9021 0
      vertex 0.209045 -1.98903 2
    endloop
  endfacet
  facet normal 0 1 0
    outer loop
      vertex -0.209045 -1.98903 0
      vertex -0.209045 -1.98903 2
      vertex 0.209045 -1.98903 0
    endloop
  endfacet
  facet normal 0 1 0
    outer loop
      vertex 0.209045 -1.98903 2
      vertex 0.209045 -1.98903 0
      vertex -0.209045 -1.98903 2
    endloop
  endfacet
endsolid OpenSCAD_Model
