solid OpenSCAD_Model
  facet normal -1 0 0
    outer loop
      vertex -20 -2.5 -0.5
      vertex -20 2.5 0.5
      vertex -20 2.5 -0.5
    endloop
  endfacet
  facet normal -1 -0 0
    outer loop
      vertex -20 2.5 0.5
      vertex -20 -2.5 -0.5
      vertex -20 -2.5 0.5
    endloop
  endfacet
  facet normal 0 0 1
    outer loop
      vertex 20 2.5 0.5
      vertex 16 1 0.5
      vertex 20 -2.5 0.5
    endloop
  endfacet
  facet normal 0 0 1
    outer loop
      vertex 20 2.5 0.5
      vertex 14 1 0.5
      vertex 16 1 0.5
    endloop
  endfacet
  facet normal 0 0 1
    outer loop
      vertex 14 1 0.5
      vertex 1 1 0.5
      vertex 14 -1 0.5
    endloop
  endfacet
  facet normal 0 0 1
    outer loop
      vertex 20 2.5 0.5
      vertex 1 1 0.5
      vertex 14 1 0.5
    endloop
  endfacet
  facet normal 0 0 1
    outer loop
      vertex 20 2.5 0.5
      vertex -1 1 0.5
      vertex 1 1 0.5
    endloop
  endfacet
  facet normal 0 0 1
    outer loop
      vertex -1 1 0.5
      vertex -14 1 0.5
      vertex -1 -1 0.5
    endloop
  endfacet
  facet normal -0 0 1
    outer loop
      vertex -20 2.5 0.5
      vertex -1 1 0.5
      vertex 20 2.5 0.5
    endloop
  endfacet
  facet normal 0 0 1
    outer loop
      vertex -1 1 0.5
      vertex -20 2.5 0.5
      vertex -14 1 0.5
    endloop
  endfacet
  facet normal 0 0 1
    outer loop
      vertex -16 1 0.5
      vertex -20 2.5 0.5
      vertex -16 -1 0.5
    endloop
  endfacet
  facet normal 0 0 1
    outer loop
      vertex -14 1 0.5
      vertex -20 2.5 0.5
      vertex -16 1 0.5
    endloop
  endfacet
  facet normal -0 0 1
    outer loop
      vertex 16 -1 0.5
      vertex 20 -2.5 0.5
      vertex 16 1 0.5
    endloop
  endfacet
  facet normal -0 0 1
    outer loop
      vertex 14 -1 0.5
      vertex 20 -2.5 0.5
      vertex 16 -1 0.5
    endloop
  endfacet
  facet normal 0 0 1
    outer loop
      vertex 1 -1 0.5
      vertex 14 -1 0.5
      vertex 1 1 0.5
    endloop
  endfacet
  facet normal 0 0 1
    outer loop
      vertex 14 -1 0.5
      vertex 1 -1 0.5
      vertex 20 -2.5 0.5
    endloop
  endfacet
  facet normal -0 0 1
    outer loop
      vertex -1 -1 0.5
      vertex 20 -2.5 0.5
      vertex 1 -1 0.5
    endloop
  endfacet
  facet normal 0 0 1
    outer loop
      vertex -14 -1 0.5
      vertex -1 -1 0.5
      vertex -14 1 0.5
    endloop
  endfacet
  facet normal 0 0 1
    outer loop
      vertex -20 -2.5 0.5
      vertex -1 -1 0.5
      vertex -14 -1 0.5
    endloop
  endfacet
  facet normal 0 0 1
    outer loop
      vertex -20 -2.5 0.5
      vertex -14 -1 0.5
      vertex -16 -1 0.5
    endloop
  endfacet
  facet normal 0 0 1
    outer loop
      vertex -1 -1 0.5
      vertex -20 -2.5 0.5
      vertex 20 -2.5 0.5
    endloop
  endfacet
  facet normal 0 0 1
    outer loop
      vertex -20 -2.5 0.5
      vertex -16 -1 0.5
      vertex -20 2.5 0.5
    endloop
  endfacet
  facet normal 1 -0 0
    outer loop
      vertex 20 -2.5 0.5
      vertex 20 2.5 -0.5
      vertex 20 2.5 0.5
    endloop
  endfacet
  facet normal 1 0 0
    outer loop
      vertex 20 2.5 -0.5
      vertex 20 -2.5 0.5
      vertex 20 -2.5 -0.5
    endloop
  endfacet
  facet normal 0 1 -0
    outer loop
      vertex 20 2.5 -0.5
      vertex -20 2.5 0.5
      vertex 20 2.5 0.5
    endloop
  endfacet
  facet normal 0 1 0
    outer loop
      vertex -20 2.5 0.5
      vertex 20 2.5 -0.5
      vertex -20 2.5 -0.5
    endloop
  endfacet
  facet normal 0 0 -1
    outer loop
      vertex -20 -2.5 -0.5
      vertex 20 2.5 -0.5
      vertex 20 -2.5 -0.5
    endloop
  endfacet
  facet normal -0 0 -1
    outer loop
      vertex 20 2.5 -0.5
      vertex -20 -2.5 -0.5
      vertex -20 2.5 -0.5
    endloop
  endfacet
  facet normal 0 -1 0
    outer loop
      vertex -20 -2.5 -0.5
      vertex 20 -2.5 0.5
      vertex -20 -2.5 0.5
    endloop
  endfacet
  facet normal 0 -1 -0
    outer loop
      vertex 20 -2.5 0.5
      vertex -20 -2.5 -0.5
      vertex 20 -2.5 -0.5
    endloop
  endfacet
  facet normal -1 0 0
    outer loop
      vertex -16 -1 0.5
      vertex -16 1 10
      vertex -16 1 0.5
    endloop
  endfacet
  facet normal -1 -0 0
    outer loop
      vertex -16 1 10
      vertex -16 -1 0.5
      vertex -16 -1 10
    endloop
  endfacet
  facet normal -0 0 1
    outer loop
      vertex -16 1 10
      vertex -14 -1 10
      vertex -14 1 10
    endloop
  endfacet
  facet normal 0 0 1
    outer loop
      vertex -14 -1 10
      vertex -16 1 10
      vertex -16 -1 10
    endloop
  endfacet
  facet normal 1 -0 0
    outer loop
      vertex -14 -1 10
      vertex -14 1 0.5
      vertex -14 1 10
    endloop
  endfacet
  facet normal 1 0 0
    outer loop
      vertex -14 1 0.5
      vertex -14 -1 10
      vertex -14 -1 0.5
    endloop
  endfacet
  facet normal 0 1 -0
    outer loop
      vertex -14 1 0.5
      vertex -16 1 10
      vertex -14 1 10
    endloop
  endfacet
  facet normal 0 1 0
    outer loop
      vertex -16 1 10
      vertex -14 1 0.5
      vertex -16 1 0.5
    endloop
  endfacet
  facet normal 0 -1 0
    outer loop
      vertex -16 -1 0.5
      vertex -14 -1 10
      vertex -16 -1 10
    endloop
  endfacet
  facet normal 0 -1 -0
    outer loop
      vertex -14 -1 10
      vertex -16 -1 0.5
      vertex -14 -1 0.5
    endloop
  endfacet
  facet normal -1 0 0
    outer loop
      vertex -1 -1 0.5
      vertex -1 1 10
      vertex -1 1 0.5
    endloop
  endfacet
  facet normal -1 -0 0
    outer loop
      vertex -1 1 10
      vertex -1 -1 0.5
      vertex -1 -1 10
    endloop
  endfacet
  facet normal -0 0 1
    outer loop
      vertex -1 1 10
      vertex 1 -1 10
      vertex 1 1 10
    endloop
  endfacet
  facet normal 0 0 1
    outer loop
      vertex 1 -1 10
      vertex -1 1 10
      vertex -1 -1 10
    endloop
  endfacet
  facet normal 1 -0 0
    outer loop
      vertex 1 -1 10
      vertex 1 1 0.5
      vertex 1 1 10
    endloop
  endfacet
  facet normal 1 0 0
    outer loop
      vertex 1 1 0.5
      vertex 1 -1 10
      vertex 1 -1 0.5
    endloop
  endfacet
  facet normal 0 1 -0
    outer loop
      vertex 1 1 0.5
      vertex -1 1 10
      vertex 1 1 10
    endloop
  endfacet
  facet normal 0 1 0
    outer loop
      vertex -1 1 10
      vertex 1 1 0.5
      vertex -1 1 0.5
    endloop
  endfacet
  facet normal 0 -1 0
    outer loop
      vertex -1 -1 0.5
      vertex 1 -1 10
      vertex -1 -1 10
    endloop
  endfacet
  facet normal 0 -1 -0
    outer loop
      vertex 1 -1 10
      vertex -1 -1 0.5
      vertex 1 -1 0.5
    endloop
  endfacet
  facet normal -1 0 0
    outer loop
      vertex 14 -1 0.5
      vertex 14 1 10
      vertex 14 1 0.5
    endloop
  endfacet
  facet normal -1 -0 0
    outer loop
      vertex 14 1 10
      vertex 14 -1 0.5
      vertex 14 -1 10
    endloop
  endfacet
  facet normal -0 0 1
    outer loop
      vertex 14 1 10
      vertex 16 -1 10
      vertex 16 1 10
    endloop
  endfacet
  facet normal 0 0 1
    outer loop
      vertex 16 -1 10
      vertex 14 1 10
      vertex 14 -1 10
    endloop
  endfacet
  facet normal 1 -0 0
    outer loop
      vertex 16 -1 10
      vertex 16 1 0.5
      vertex 16 1 10
    endloop
  endfacet
  facet normal 1 0 0
    outer loop
      vertex 16 1 0.5
      vertex 16 -1 10
      vertex 16 -1 0.5
    endloop
  endfacet
  facet normal 0 -1 0
    outer loop
      vertex 14 -1 0.5
      vertex 16 -1 10
      vertex 14 -1 10
    endloop
  endfacet
  facet normal 0 -1 -0
    outer loop
      vertex 16 -1 10
      vertex 14 -1 0.5
      vertex 16 -1 0.5
    endloop
  endfacet
  facet normal 0 1 -0
    outer loop
      vertex 16 1 0.5
      vertex 14 1 10
      vertex 16 1 10
    endloop
  endfacet
  facet normal 0 1 0
    outer loop
      vertex 14 1 10
      vertex 16 1 0.5
      vertex 14 1 0.5
    endloop
  endfacet
endsolid OpenSCAD_Model
